<svg width="56" height="56" viewBox="0 0 56 56" fill="none" xmlns="http://www.w3.org/2000/svg">
<path d="M28.3011 7.11475L29.4219 9.21983C29.6739 9.6083 29.9468 9.95215 30.2684 10.2724C31.2111 11.2033 32.0897 12.1969 32.8984 13.2463C34.7975 15.7398 36.0784 18.509 36.9931 21.5039C37.5417 23.3334 37.8396 25.2101 37.8619 27.1078C37.9538 32.7813 36.0088 37.653 32.0874 41.7017C31.4495 42.3438 30.7604 42.9328 30.0269 43.463C29.6384 43.463 29.4547 43.165 29.2946 42.8908C29.003 42.3821 28.8089 41.8235 28.7224 41.2437C28.5846 40.5573 28.494 39.8709 28.5386 39.1622V38.842C28.5071 38.7738 28.1646 7.27617 28.3011 7.11475Z" fill="#599636"/>
<path d="M28.3011 7.04515C28.2551 6.95328 28.2092 7.02284 28.1633 7.06746C28.1856 7.5268 28.0255 7.93627 27.7748 8.32736C27.4992 8.71583 27.1344 9.01375 26.7682 9.33397C24.734 11.0952 23.1328 13.2226 21.8506 15.602C20.1445 18.8042 19.2652 22.2362 19.0158 25.8492C18.9017 27.1524 19.4279 31.7511 19.8387 33.0779C20.9595 36.6004 22.9727 39.552 25.5805 42.1138C26.2209 42.7306 26.906 43.3028 27.6147 43.8527C27.8207 43.8527 27.843 43.669 27.8903 43.5325C27.9806 43.2404 28.0495 42.9421 28.0963 42.64L28.5557 39.2094L28.3011 7.04515Z" fill="#6CAC48"/>
<path d="M29.4219 44.8569C29.4678 44.3319 29.7198 43.8962 29.9941 43.4618C29.7185 43.3476 29.5137 43.1206 29.3536 42.8673C29.2156 42.6275 29.1013 42.3747 29.0124 42.1127C28.6922 41.152 28.6239 40.1441 28.5321 39.1624V38.5679C28.4179 38.6597 28.3943 39.4367 28.3943 39.5522C28.3275 40.5897 28.1898 41.6215 27.9822 42.6403C27.9139 43.0523 27.868 43.4631 27.6147 43.8293C27.6147 43.8752 27.6147 43.9212 27.637 43.9894C28.0491 45.2021 28.162 46.437 28.2315 47.6956V48.155C28.2315 48.7035 28.2092 48.5881 28.6646 48.7718C28.8483 48.84 29.0531 48.8637 29.2368 49.0001C29.3746 49.0001 29.3969 48.886 29.3969 48.7941L29.3287 48.0395V45.9344C29.3064 45.5669 29.3746 45.2021 29.4206 44.8582L29.4219 44.8569Z" fill="#C2BFBF"/>
</svg>
